<svg version="1.1" viewBox="0.0 0.0 400.0 150.0" fill="none" stroke="none" stroke-linecap="square" stroke-miterlimit="10" xmlns:xlink="http://www.w3.org/1999/xlink" xmlns="http://www.w3.org/2000/svg"><clipPath id="p.0"><path d="m0 0l400.0 0l0 150.0l-400.0 0l0 -150.0z" clip-rule="nonzero"/></clipPath><g clip-path="url(#p.0)"><path fill="#ff0000" d="m0 0l400.0 0l0 150.0l-400.0 0z" fill-rule="evenodd"/><path fill="#000000" fill-opacity="0.0" d="m0 17.832022l397.03937 0l0 117.48031l-397.03937 0z" fill-rule="evenodd"/><path fill="#000000" d="m145.30576 60.102802q0.859375 1.265625 1.890625 2.0q1.046875 0.734375 2.5625 1.09375l0 1.0156288q-2.421875 -0.15625 -6.078125 -0.15625q-2.734375 0 -5.21875 0.15625l0 -1.0156288q1.21875 -0.046875 1.765625 -0.296875q0.5625 -0.265625 0.5625 -0.765625q0 -0.5 -0.5 -1.21875l-7.390625 -11.140625q-1.46875 -2.234375 -2.484375 -2.90625q-1.015625 -0.6875 -2.84375 -0.796875l0 12.765625q0 1.9375 0.296875 2.796875q0.3125 0.859375 1.140625 1.171875q0.84375 0.296875 2.671875 0.390625l0 1.0156288q-2.328125 -0.15625 -6.4375 -0.15625q-4.359375 0 -6.484375 0.15625l0 -1.0156288q1.828125 -0.09375 2.65625 -0.390625q0.84375 -0.3125 1.140625 -1.171875q0.3125 -0.859375 0.3125 -2.796875l0 -25.125q0 -1.9218731 -0.3125 -2.781248q-0.296875 -0.859375 -1.140625 -1.15625q-0.828125 -0.3125 -2.65625 -0.40625l0 -1.015625q2.125 0.140625 6.484375 0.140625q4.0625 0 6.4375 -0.140625l0 1.015625q-1.828125 0.09375 -2.671875 0.40625q-0.828125 0.296875 -1.140625 1.15625q-0.296875 0.859375 -0.296875 2.781248l0 11.359375q3.703125 -0.15625 5.78125 -2.84375l4.859375 -6.1875q2.578125 -3.1875 2.578125 -4.859373q0 -1.765625 -3.140625 -1.8125l0 -1.015625q2.890625 0.140625 5.828125 0.140625q2.796875 0 4.3125 -0.140625l0 1.015625q-1.671875 0.25 -3.140625 1.09375q-1.46875 0.828125 -2.84375 2.593748l-8.25 10.59375l11.75 16.453125zm21.72676 -22.6875q2.03125 0 3.3125 1.171875q1.296875 1.15625 1.296875 2.828125q0 1.3125 -0.78125 2.25q-0.78125 0.9375 -2.09375 0.9375q-1.125 0 -1.90625 -0.703125q-0.78125 -0.703125 -0.78125 -1.921875q0 -1.671875 1.71875 -2.734375q-0.359375 -0.515625 -1.0625 -0.515625q-1.984375 0 -3.609375 1.546875q-1.609375 1.546875 -2.53125 3.78125q-0.90625 2.21875 -0.90625 4.203125l0 10.734375q0 2.328125 1.34375 3.25q1.34375 0.90625 4.03125 0.90625l0 1.0625038l-1.21875 -0.046875q-5.171875 -0.15625 -6.578125 -0.15625q-1.328125 0 -5.984375 0.203125l0 -1.0625038q2.125 0 2.984375 -0.78125q0.859375 -0.796875 0.859375 -2.875l0 -15.84375q0 -2.328125 -0.859375 -3.390625q-0.859375 -1.078125 -2.984375 -1.078125l0 -1.0625q1.625 0.15625 3.140625 0.15625q3.1875 0 5.265625 -0.703125l0 6.328125q0.921875 -2.53125 2.921875 -4.5q2.0 -1.984375 4.421875 -1.984375zm18.184982 0q5.171875 0 8.328125 3.421875q3.171875 3.421875 3.171875 10.359375q0 6.9375 -3.171875 10.328125q-3.15625 3.3906288 -8.328125 3.3906288q-5.15625 0 -8.328125 -3.3906288q-3.171875 -3.390625 -3.171875 -10.328125q0 -6.9375 3.171875 -10.359375q3.171875 -3.421875 8.328125 -3.421875zm0 1.015625q-3.03125 0 -4.8125 3.125q-1.765625 3.109375 -1.765625 9.640625q0 6.53125 1.765625 9.625q1.78125 3.09375 4.8125 3.09375q3.046875 0 4.8125 -3.09375q1.78125 -3.09375 1.78125 -9.625q0 -6.53125 -1.78125 -9.640625q-1.765625 -3.125 -4.8125 -3.125zm34.295624 -0.15625q2.234375 0 3.859375 -0.15625l0 1.015625q-1.015625 0.109375 -1.8125 0.921875q-0.78125 0.796875 -1.484375 2.625l-8.3125 21.781254l-0.859375 0l-9.3125 -22.437504q-0.765625 -1.71875 -1.484375 -2.28125q-0.703125 -0.5625 -1.453125 -0.5625l0 -1.0625q2.625 0.203125 4.453125 0.203125q3.890625 0 6.578125 -0.203125l0 1.0625q-1.875 0 -2.734375 0.28125q-0.859375 0.28125 -0.859375 1.453125q0 0.703125 0.5625 2.21875l6.234375 15.40625l5.5625 -14.640625q0.5625 -1.515625 0.5625 -2.375q0 -1.171875 -0.890625 -1.703125q-0.890625 -0.53125 -2.859375 -0.6875l0 -1.015625q2.625 0.15625 4.25 0.15625zm11.25531 -12.812498q1.3125 0 2.28125 0.96875q0.96875 0.953125 0.96875 2.265625q0 1.328125 -0.96875 2.296875q-0.96875 0.953125 -2.28125 0.953125q-1.3125 0 -2.28125 -0.953125q-0.953125 -0.96875 -0.953125 -2.296875q0 -1.3125 0.953125 -2.265625q0.96875 -0.96875 2.28125 -0.96875zm2.625 34.03125q0 2.078125 0.859375 2.875q0.859375 0.78125 3.0 0.78125l0 1.0625038q-4.671875 -0.203125 -6.140625 -0.203125q-1.46875 0 -6.125 0.203125l0 -1.0625038q2.125 0 2.984375 -0.78125q0.859375 -0.796875 0.859375 -2.875l0 -15.84375q0 -2.328125 -0.859375 -3.390625q-0.859375 -1.078125 -2.984375 -1.078125l0 -1.0625q1.625 0.15625 3.140625 0.15625q3.1875 0 5.265625 -0.703125l0 21.921875zm14.5923 -21.3125l7.5 0l0 1.0l-7.5 0l0 19.609375q0 2.28125 0.828125 3.296875q0.84375 1.015625 2.40625 1.015625q1.578125 0 2.6875 -1.265625q1.125 -1.265625 1.875 -4.15625l1.0156097 0.25q-1.2656097 6.984379 -6.5781097 6.984379q-1.734375 0 -2.84375 -0.40625q-1.109375 -0.390625 -1.96875 -1.2656288q-1.125 -1.109375 -1.5625 -2.71875q-0.421875 -1.625 -0.421875 -4.359375l0 -16.984375l-4.859375 0l0 -1.0l4.859375 0l0 -7.749998q2.84375 -0.109375 4.5625 -0.71875l0 8.468748zm15.901108 25.265625l5.578125 0q3.140625 0 4.90625 -1.9375q1.78125 -1.953125 2.140625 -6.21875l1.15625 0q0 6.640625 0.203125 9.125004q-4.0 -0.203125 -9.421875 -0.203125q-4.8125 0 -10.234375 0.25l14.640625 -25.578129l-5.5625 0q-3.40625 0 -5.046875 1.90625q-1.640625 1.890625 -2.0 6.25l-1.171875 0q0 -6.640625 -0.203125 -9.125q4.0 0.203125 9.421875 0.203125q4.8125 0 10.234375 -0.25l-14.640625 25.578125z" fill-rule="nonzero"/><path fill="#000000" d="m139.07489 121.102806q0.859375 1.265625 1.890625 2.0q1.046875 0.734375 2.5625 1.09375l0 1.015625q-2.421875 -0.15625 -6.078125 -0.15625q-2.734375 0 -5.21875 0.15625l0 -1.015625q1.21875 -0.046875 1.765625 -0.296875q0.5625 -0.265625 0.5625 -0.765625q0 -0.5 -0.5 -1.21875l-7.390625 -11.140625q-1.46875 -2.234375 -2.484375 -2.90625q-1.015625 -0.6875 -2.84375 -0.796875l0 12.765625q0 1.9375 0.296875 2.796875q0.3125 0.859375 1.140625 1.171875q0.84375 0.296875 2.671875 0.390625l0 1.015625q-2.328125 -0.15625 -6.4375 -0.15625q-4.359375 0 -6.484375 0.15625l0 -1.015625q1.828125 -0.09375 2.65625 -0.390625q0.84375 -0.3125 1.140625 -1.171875q0.3125 -0.859375 0.3125 -2.796875l0 -25.125q0 -1.921875 -0.3125 -2.78125q-0.296875 -0.859375 -1.140625 -1.15625q-0.828125 -0.3125 -2.65625 -0.40625l0 -1.015625q2.125 0.140625 6.484375 0.140625q4.0625 0 6.4375 -0.140625l0 1.015625q-1.828125 0.09375 -2.671875 0.40625q-0.828125 0.296875 -1.140625 1.15625q-0.296875 0.859375 -0.296875 2.78125l0 11.359375q3.703125 -0.15625 5.78125 -2.84375l4.859375 -6.1875q2.578125 -3.1875 2.578125 -4.859375q0 -1.765625 -3.140625 -1.8125l0 -1.015625q2.890625 0.140625 5.828125 0.140625q2.796875 0 4.3125 -0.140625l0 1.015625q-1.671875 0.25 -3.140625 1.09375q-1.46875 0.828125 -2.84375 2.59375l-8.25 10.59375l11.75 16.453125zm11.758011 -34.640625q1.3125 0 2.28125 0.96875q0.96875 0.953125 0.96875 2.265625q0 1.328125 -0.96875 2.296875q-0.96875 0.953125 -2.28125 0.953125q-1.3125 0 -2.28125 -0.953125q-0.953125 -0.96875 -0.953125 -2.296875q0 -1.3125 0.953125 -2.265625q0.96875 -0.96875 2.28125 -0.96875zm2.625 34.03125q0 2.078125 0.859375 2.875q0.859375 0.78125 3.0 0.78125l0 1.0625q-4.671875 -0.203125 -6.140625 -0.203125q-1.46875 0 -6.125 0.203125l0 -1.0625q2.125 0 2.984375 -0.78125q0.859375 -0.796875 0.859375 -2.875l0 -15.84375q0 -2.328125 -0.859375 -3.390625q-0.859375 -1.078125 -2.984375 -1.078125l0 -1.0625q1.625 0.15625 3.140625 0.15625q3.1875 0 5.265625 -0.703125l0 21.921875zm14.5923 -21.3125l7.5 0l0 1.0l-7.5 0l0 19.609375q0 2.28125 0.828125 3.296875q0.84375 1.015625 2.40625 1.015625q1.578125 0 2.6875 -1.265625q1.125 -1.265625 1.875 -4.15625l1.015625 0.25q-1.265625 6.984375 -6.578125 6.984375q-1.734375 0 -2.84375 -0.40625q-1.109375 -0.390625 -1.96875 -1.265625q-1.125 -1.109375 -1.5625 -2.71875q-0.421875 -1.625 -0.421875 -4.359375l0 -16.984375l-4.859375 0l0 -1.0l4.859375 0l0 -7.75q2.84375 -0.109375 4.5625 -0.71875l0 8.46875zm22.447968 -0.765625q3.390625 0 5.875 1.625q2.375 1.5625 2.375 3.890625q0 1.328125 -0.765625 2.09375q-0.75 0.75 -1.921875 0.75q-1.15625 0 -1.96875 -0.6875q-0.8125 -0.6875 -0.8125 -1.84375q0 -1.0625 0.609375 -1.796875q0.609375 -0.734375 1.515625 -1.0q-0.5 -0.90625 -1.796875 -1.515625q-1.296875 -0.609375 -2.765625 -0.609375q-1.875 0 -3.5 1.203125q-1.609375 1.1875 -2.671875 3.953125q-1.0625 2.75 -1.0625 7.265625q0 6.28125 2.015625 9.140625q2.03125 2.859375 5.265625 2.859375q2.1875 0 4.125 -1.265625q1.953125 -1.265625 3.234375 -3.953125l0.953125 0.359375q-0.859375 2.890625 -3.21875 4.96875q-2.34375 2.0625 -6.09375 2.0625q-3.140625 0 -5.703125 -1.609375q-2.5625 -1.625 -4.03125 -4.6875q-1.46875 -3.0625 -1.46875 -7.125q0 -4.09375 1.484375 -7.28125q1.5 -3.203125 4.1875 -5.0q2.6875 -1.796875 6.140625 -1.796875zm19.900223 6.078125q1.265625 -3.1875 3.515625 -4.625q2.265625 -1.453125 5.09375 -1.453125q3.546875 0 5.375 1.921875q0.953125 1.015625 1.359375 2.546875q0.40625 1.515625 0.40625 4.09375l0 13.515625q0 2.078125 0.859375 2.875q0.875 0.78125 3.0 0.78125l0 1.0625q-4.671875 -0.203125 -6.078125 -0.203125q-1.421875 0 -5.671875 0.203125l0 -1.0625q1.859375 0 2.59375 -0.78125q0.734375 -0.796875 0.734375 -2.875l0 -14.625q0 -2.84375 -0.8125 -4.328125q-0.796875 -1.5 -3.28125 -1.5q-2.078125 0 -3.671875 1.171875q-1.59375 1.15625 -2.515625 3.265625q-0.90625 2.09375 -0.90625 4.734375l0 11.28125q0 2.078125 0.734375 2.875q0.734375 0.78125 2.609375 0.78125l0 1.0625q-4.25 -0.203125 -5.671875 -0.203125q-1.421875 0 -6.078125 0.203125l0 -1.0625q2.125 0 2.984375 -0.78125q0.859375 -0.796875 0.859375 -2.875l0 -28.859375q0 -2.34375 -0.859375 -3.40625q-0.859375 -1.0625 -2.984375 -1.0625l0 -1.0625q1.625 0.15625 3.140625 0.15625q3.1875 0 5.265625 -0.703125l0 18.9375zm43.81717 14.640625q-0.90625 2.78125 -3.421875 4.78125q-2.5 2.0 -6.046875 2.0q-3.59375 0 -6.234375 -1.640625q-2.640625 -1.640625 -4.03125 -4.609375q-1.390625 -2.96875 -1.390625 -6.859375q0 -4.40625 1.421875 -7.640625q1.421875 -3.25 4.0 -5.0q2.578125 -1.75 6.03125 -1.75q4.5625 0 7.015625 2.765625q2.453125 2.75 2.453125 8.375l-15.859375 0q-0.140625 1.421875 -0.140625 3.25q0 3.34375 1.078125 5.828125q1.09375 2.46875 2.890625 3.8125q1.796875 1.34375 3.78125 1.34375q2.421875 0 4.296875 -1.15625q1.875 -1.171875 3.140625 -3.90625l1.015625 0.40625zm-9.875 -19.75q-2.390625 0 -4.109375 2.328125q-1.71875 2.328125 -2.125 6.890625l11.046875 0q0.09375 -3.953125 -1.15625 -6.578125q-1.234375 -2.640625 -3.65625 -2.640625zm30.538345 -0.96875q3.546875 0 5.375 1.921875q0.96875 1.015625 1.359375 2.546875q0.40625 1.515625 0.40625 4.09375l0 13.515625q0 2.078125 0.859375 2.875q0.875 0.78125 3.0 0.78125l0 1.0625q-4.65625 -0.203125 -6.078125 -0.203125q-1.421875 0 -5.671875 0.203125l0 -1.0625q1.875 0 2.609375 -0.78125q0.734375 -0.796875 0.734375 -2.875l0 -14.625q0 -2.84375 -0.8125 -4.328125q-0.8125 -1.5 -3.296875 -1.5q-2.078125 0 -3.703125 1.21875q-1.609375 1.203125 -2.5 3.3125q-0.890625 2.09375 -0.890625 4.6875l0 11.234375q0 2.078125 0.734375 2.875q0.734375 0.78125 2.609375 0.78125l0 1.0625q-4.25 -0.203125 -5.671875 -0.203125q-1.421875 0 -6.078125 0.203125l0 -1.0625q2.125 0 2.984375 -0.78125q0.859375 -0.796875 0.859375 -2.875l0 -15.84375q0 -2.328125 -0.859375 -3.390625q-0.859375 -1.078125 -2.984375 -1.078125l0 -1.0625q1.625 0.15625 3.140625 0.15625q3.1875 0 5.265625 -0.703125l0 5.96875q1.265625 -3.234375 3.515625 -4.671875q2.265625 -1.453125 5.09375 -1.453125z" fill-rule="nonzero"/></g></svg>