<svg version="1.1" viewBox="0.0 0.0 400.0 150.0" fill="none" stroke="none" stroke-linecap="square" stroke-miterlimit="10" xmlns:xlink="http://www.w3.org/1999/xlink" xmlns="http://www.w3.org/2000/svg"><clipPath id="g5e10ebc378_0_0.0"><path d="m0 0l400.0 0l0 150.0l-400.0 0l0 -150.0z" clip-rule="nonzero"/></clipPath><g clip-path="url(#g5e10ebc378_0_0.0)"><path fill="#fdf6e4" d="m0 0l400.0 0l0 150.0l-400.0 0z" fill-rule="evenodd"/><path fill="#000000" fill-opacity="0.0" d="m72.661415 15.9921255l254.67719 0l0 118.01575l-254.67719 0z" fill-rule="evenodd"/><path fill="#005596" d="m80.786415 39.32l-4.8125 -18.125l2.453125 0l2.765625 11.875q0.4375 1.875 0.765625 3.71875q0.6875 -2.90625 0.8125 -3.359375l3.453125 -12.234375l2.890625 0l2.59375 9.171875q0.984375 3.40625 1.421875 6.421875q0.34375 -1.71875 0.890625 -3.953125l2.84375 -11.640625l2.421875 0l-4.96875 18.125l-2.3125 0l-3.828125 -13.8125q-0.484375 -1.734375 -0.5625 -2.125q-0.296875 1.25 -0.53125 2.125l-3.859375 13.8125l-2.4375 0zm28.979462 -4.234375l2.296875 0.296875q-0.53125 2.015625 -2.015625 3.125q-1.46875 1.109375 -3.75 1.109375q-2.890625 0 -4.578125 -1.765625q-1.6875 -1.78125 -1.6875 -4.984375q0 -3.3125 1.703125 -5.140625q1.71875 -1.84375 4.4375 -1.84375q2.640625 0 4.296875 1.796875q1.671875 1.796875 1.671875 5.046875q0 0.203125 -0.015625 0.59375l-9.78125 0q0.109375 2.171875 1.203125 3.328125q1.109375 1.140625 2.765625 1.140625q1.21875 0 2.078125 -0.640625q0.875 -0.640625 1.375 -2.0625zm-7.3125 -3.59375l7.34375 0q-0.15625 -1.65625 -0.84375 -2.484375q-1.0625 -1.28125 -2.75 -1.28125q-1.546875 0 -2.59375 1.03125q-1.03125 1.015625 -1.15625 2.734375zm12.430054 -3.890625l-0.578125 -3.375l0 -3.03125l2.53125 0l0 3.03125l-0.578125 3.375l-1.375 0zm4.788727 11.71875l0 -13.140625l2.0 0l0 2.0q0.78125 -1.40625 1.421875 -1.84375q0.65625 -0.453125 1.4375 -0.453125q1.125 0 2.28125 0.71875l-0.765625 2.078125q-0.8125 -0.484375 -1.640625 -0.484375q-0.71875 0 -1.3125 0.4375q-0.578125 0.4375 -0.828125 1.21875q-0.359375 1.1875 -0.359375 2.59375l0 6.875l-2.234375 0zm17.450096 -4.234375l2.296875 0.296875q-0.53125 2.015625 -2.015625 3.125q-1.46875 1.109375 -3.75 1.109375q-2.890625 0 -4.578125 -1.765625q-1.6875076 -1.78125 -1.6875076 -4.984375q0 -3.3125 1.7031326 -5.140625q1.71875 -1.84375 4.4375 -1.84375q2.640625 0 4.296875 1.796875q1.671875 1.796875 1.671875 5.046875q0 0.203125 -0.015625 0.59375l-9.78125 0q0.109375 2.171875 1.203125 3.328125q1.109375 1.140625 2.765625 1.140625q1.21875 0 2.078125 -0.640625q0.875 -0.640625 1.375 -2.0625zm-7.3125 -3.59375l7.34375 0q-0.15625 -1.65625 -0.84375 -2.484375q-1.0625 -1.28125 -2.75 -1.28125q-1.546875 0 -2.59375 1.03125q-1.03125 1.015625 -1.15625 2.734375zm19.42015 7.828125l0 -13.140625l2.0 0l0 2.0q0.78125 -1.40625 1.421875 -1.84375q0.65625 -0.453125 1.4375 -0.453125q1.125 0 2.28125 0.71875l-0.765625 2.078125q-0.8125 -0.484375 -1.640625 -0.484375q-0.71875 0 -1.3125 0.4375q-0.578125 0.4375 -0.828125 1.21875q-0.359375 1.1875 -0.359375 2.59375l0 6.875l-2.234375 0zm7.6375885 -6.5625q0 -3.65625 2.03125 -5.40625q1.6875 -1.46875 4.125 -1.46875q2.703125 0 4.421875 1.78125q1.71875 1.78125 1.71875 4.90625q0 2.53125 -0.765625 3.984375q-0.75 1.453125 -2.203125 2.265625q-1.453125 0.796875 -3.171875 0.796875q-2.765625 0 -4.46875 -1.765625q-1.6875 -1.765625 -1.6875 -5.09375zm2.28125 0q0 2.515625 1.09375 3.78125q1.109375 1.25 2.78125 1.25q1.65625 0 2.75 -1.265625q1.109375 -1.265625 1.109375 -3.84375q0 -2.4375 -1.109375 -3.6875q-1.109375 -1.265625 -2.75 -1.265625q-1.671875 0 -2.78125 1.25q-1.09375 1.25 -1.09375 3.78125zm12.586304 6.5625l0 -18.125l2.21875 0l0 18.125l-2.21875 0zm5.6271057 0l0 -18.125l2.21875 0l0 18.125l-2.21875 0zm5.6896057 -15.578125l0 -2.546875l2.21875 0l0 2.546875l-2.21875 0zm0 15.578125l0 -13.140625l2.21875 0l0 13.140625l-2.21875 0zm5.6114807 0l0 -13.140625l2.0 0l0 1.875q1.453125 -2.171875 4.1875 -2.171875q1.1875 0 2.171875 0.4375q1.0 0.421875 1.484375 1.125q0.5 0.6875 0.703125 1.640625q0.125 0.609375 0.125 2.15625l0 8.078125l-2.234375 0l0 -7.984375q0 -1.359375 -0.265625 -2.03125q-0.25 -0.6875 -0.90625 -1.078125q-0.65625 -0.40625 -1.546875 -0.40625q-1.421875 0 -2.46875 0.90625q-1.03125 0.890625 -1.03125 3.421875l0 7.171875l-2.21875 0zm13.680054 1.09375l2.15625 0.3125q0.140625 1.0 0.765625 1.46875q0.828125 0.609375 2.25 0.609375q1.546875 0 2.390625 -0.625q0.84375 -0.609375 1.140625 -1.71875q0.171875 -0.6875 0.15625 -2.859375q-1.453125 1.71875 -3.625 1.71875q-2.71875 0 -4.203125 -1.953125q-1.484375 -1.953125 -1.484375 -4.6875q0 -1.875 0.671875 -3.46875q0.6875 -1.59375 1.984375 -2.453125q1.296875 -0.875 3.03125 -0.875q2.328125 0 3.84375 1.890625l0 -1.59375l2.046875 0l0 11.359375q0 3.0625 -0.625 4.34375q-0.625 1.28125 -1.984375 2.015625q-1.34375 0.75 -3.328125 0.75q-2.34375 0 -3.796875 -1.0625q-1.4375 -1.046875 -1.390625 -3.171875zm1.84375 -7.890625q0 2.578125 1.015625 3.765625q1.03125 1.1875 2.578125 1.1875q1.53125 0 2.5625 -1.171875q1.046875 -1.1875 1.046875 -3.71875q0 -2.40625 -1.078125 -3.625q-1.0625 -1.234375 -2.5625 -1.234375q-1.484375 0 -2.53125 1.21875q-1.03125 1.203125 -1.03125 3.578125zm18.85765 0.234375q0 -3.65625 2.03125 -5.40625q1.6875 -1.46875 4.125 -1.46875q2.703125 0 4.421875 1.78125q1.71875 1.78125 1.71875 4.90625q0 2.53125 -0.765625 3.984375q-0.75 1.453125 -2.203125 2.265625q-1.453125 0.796875 -3.171875 0.796875q-2.765625 0 -4.46875 -1.765625q-1.6875 -1.765625 -1.6875 -5.09375zm2.28125 0q0 2.515625 1.09375 3.78125q1.109375 1.25 2.78125 1.25q1.65625 0 2.75 -1.265625q1.109375 -1.265625 1.109375 -3.84375q0 -2.4375 -1.109375 -3.6875q-1.109375 -1.265625 -2.75 -1.265625q-1.671875 0 -2.78125 1.25q-1.09375 1.25 -1.09375 3.78125zm21.242554 6.5625l0 -1.921875q-1.53125 2.21875 -4.171875 2.21875q-1.15625 0 -2.171875 -0.4375q-1.0 -0.453125 -1.5 -1.125q-0.484375 -0.671875 -0.6875 -1.65625q-0.125 -0.65625 -0.125 -2.078125l0 -8.140625l2.21875 0l0 7.296875q0 1.734375 0.140625 2.34375q0.203125 0.875 0.875 1.375q0.6875 0.5 1.6875 0.5q1.015625 0 1.890625 -0.5q0.875 -0.515625 1.234375 -1.40625q0.375 -0.890625 0.375 -2.5625l0 -7.046875l2.21875 0l0 13.140625l-1.984375 0zm10.336288 -1.984375l0.3125 1.953125q-0.9375 0.203125 -1.6718597 0.203125q-1.21875 0 -1.890625 -0.375q-0.65625 -0.390625 -0.9375 -1.015625q-0.265625 -0.625 -0.265625 -2.625l0 -7.5625l-1.640625 0l0 -1.734375l1.640625 0l0 -3.25l2.21875 -1.328125l0 4.578125l2.2343597 0l0 1.734375l-2.2343597 0l0 7.6875q0 0.953125 0.109375 1.234375q0.125 0.265625 0.390625 0.421875q0.265625 0.15625 0.75 0.15625q0.37498474 0 0.98435974 -0.078125zm8.386444 -4.578125q0 -3.65625 2.03125 -5.40625q1.6875 -1.46875 4.125 -1.46875q2.703125 0 4.421875 1.78125q1.71875 1.78125 1.71875 4.90625q0 2.53125 -0.765625 3.984375q-0.75 1.453125 -2.203125 2.265625q-1.453125 0.796875 -3.171875 0.796875q-2.765625 0 -4.46875 -1.765625q-1.6875 -1.765625 -1.6875 -5.09375zm2.28125 0q0 2.515625 1.09375 3.78125q1.109375 1.25 2.78125 1.25q1.65625 0 2.75 -1.265625q1.109375 -1.265625 1.109375 -3.84375q0 -2.4375 -1.109375 -3.6875q-1.109375 -1.265625 -2.75 -1.265625q-1.671875 0 -2.78125 1.25q-1.09375 1.25 -1.09375 3.78125zm21.242554 6.5625l0 -1.921875q-1.53125 2.21875 -4.171875 2.21875q-1.15625 0 -2.171875 -0.4375q-1.0 -0.453125 -1.5 -1.125q-0.484375 -0.671875 -0.6875 -1.65625q-0.125 -0.65625 -0.125 -2.078125l0 -8.140625l2.21875 0l0 7.296875q0 1.734375 0.140625 2.34375q0.203125 0.875 0.875 1.375q0.6875 0.5 1.6875 0.5q1.015625 0 1.890625 -0.5q0.875 -0.515625 1.234375 -1.40625q0.375 -0.890625 0.375 -2.5625l0 -7.046875l2.21875 0l0 13.140625l-1.984375 0zm5.4456787 0l0 -13.140625l2.0 0l0 2.0q0.78125 -1.40625 1.421875 -1.84375q0.65625 -0.453125 1.4375 -0.453125q1.125 0 2.28125 0.71875l-0.765625 2.078125q-0.8125 -0.484375 -1.640625 -0.484375q-0.71875 0 -1.3125 0.4375q-0.578125 0.4375 -0.828125 1.21875q-0.359375 1.1875 -0.359375 2.59375l0 6.875l-2.234375 0z" fill-rule="nonzero"/><path fill="#005596" d="m76.442665 65.398125l2.203125 -0.34375q0.1875 1.328125 1.03125 2.03125q0.84375 0.703125 2.359375 0.703125q1.546875 0 2.28125 -0.625q0.75 -0.625 0.75 -1.46875q0 -0.75 -0.65625 -1.1875q-0.46875 -0.296875 -2.28125 -0.75q-2.453125 -0.625 -3.40625 -1.078125q-0.9375 -0.453125 -1.421875 -1.25q-0.484375 -0.796875 -0.484375 -1.75q0 -0.890625 0.390625 -1.625q0.40625 -0.75 1.09375 -1.25q0.53125 -0.390625 1.421875 -0.65625q0.890625 -0.265625 1.921875 -0.265625q1.546875 0 2.71875 0.453125q1.171875 0.4375 1.71875 1.203125q0.5625 0.765625 0.765625 2.03125l-2.171875 0.296875q-0.140625 -1.015625 -0.859375 -1.578125q-0.71875 -0.5625 -2.015625 -0.5625q-1.53125 0 -2.1875 0.5q-0.65625 0.5 -0.65625 1.1875q0 0.4375 0.28125 0.78125q0.265625 0.359375 0.84375 0.59375q0.34375 0.125 1.96875 0.5625q2.359375 0.640625 3.296875 1.046875q0.9375 0.390625 1.46875 1.15625q0.53125 0.765625 0.53125 1.90625q0 1.109375 -0.65625 2.09375q-0.640625 0.984375 -1.875 1.53125q-1.21875 0.53125 -2.765625 0.53125q-2.5625 0 -3.90625 -1.0625q-1.328125 -1.0625 -1.703125 -3.15625zm22.539062 -0.3125l2.296875 0.296875q-0.53125 2.015625 -2.015625 3.125q-1.46875 1.109375 -3.75 1.109375q-2.890625 0 -4.578125 -1.765625q-1.6875 -1.78125 -1.6875 -4.984375q0 -3.3125 1.703125 -5.140625q1.71875 -1.84375 4.4375 -1.84375q2.640625 0 4.296875 1.796875q1.671875 1.796875 1.671875 5.046875q0 0.203125 -0.015625 0.59375l-9.78125 0q0.109375 2.171875 1.203125 3.328125q1.109375 1.140625 2.765625 1.140625q1.21875 0 2.078125 -0.640625q0.875 -0.640625 1.375 -2.0625zm-7.3125 -3.59375l7.34375 0q-0.15625 -1.65625 -0.84375 -2.484375q-1.0625 -1.28125 -2.75 -1.28125q-1.546875 0 -2.59375 1.03125q-1.03125 1.015625 -1.15625 2.734375zm20.976929 6.203125q-1.234375 1.0625 -2.375 1.5q-1.140625 0.421875 -2.453125 0.421875q-2.171875 0 -3.328125 -1.046875q-1.15625 -1.0625 -1.15625 -2.71875q0 -0.953125 0.4375 -1.75q0.4375 -0.796875 1.140625 -1.28125q0.71875 -0.484375 1.609375 -0.734375q0.65625 -0.171875 1.96875 -0.328125q2.703125 -0.328125 3.96875 -0.765625q0.015625 -0.46875 0.015625 -0.59375q0 -1.359375 -0.625 -1.90625q-0.859375 -0.765625 -2.53125 -0.765625q-1.578125 0 -2.328125 0.5625q-0.75 0.546875 -1.109375 1.9375l-2.171875 -0.296875q0.296875 -1.390625 0.96875 -2.25q0.6875 -0.859375 1.96875 -1.328125q1.296875 -0.46875 2.984375 -0.46875q1.6875 0 2.734375 0.40625q1.046875 0.390625 1.546875 1.0q0.5 0.59375 0.6875 1.5q0.125 0.578125 0.125 2.0625l0 2.96875q0 3.09375 0.140625 3.921875q0.140625 0.828125 0.5625 1.578125l-2.328125 0q-0.34375 -0.6875 -0.453125 -1.625zm-0.1875 -4.96875q-1.203125 0.5 -3.625 0.84375q-1.375 0.203125 -1.953125 0.453125q-0.5625 0.234375 -0.875 0.71875q-0.296875 0.46875 -0.296875 1.046875q0 0.890625 0.671875 1.484375q0.671875 0.59375 1.96875 0.59375q1.28125 0 2.28125 -0.5625q1.0 -0.5625 1.484375 -1.53125q0.34375 -0.75 0.34375 -2.234375l0 -0.8125zm4.8206787 2.671875l2.203125 -0.34375q0.1875 1.328125 1.03125 2.03125q0.84375 0.703125 2.359375 0.703125q1.546875 0 2.28125 -0.625q0.75 -0.625 0.75 -1.46875q0 -0.75 -0.65625 -1.1875q-0.46875 -0.296875 -2.28125 -0.75q-2.453125 -0.625 -3.40625 -1.078125q-0.9375 -0.453125 -1.421875 -1.25q-0.484375 -0.796875 -0.484375 -1.75q0 -0.890625 0.390625 -1.625q0.40625 -0.75 1.09375 -1.25q0.53125 -0.390625 1.421875 -0.65625q0.890625 -0.265625 1.921875 -0.265625q1.546875 0 2.71875 0.453125q1.171875 0.4375 1.71875 1.203125q0.5625 0.765625 0.765625 2.03125l-2.171875 0.296875q-0.140625 -1.015625 -0.859375 -1.578125q-0.71875 -0.5625 -2.015625 -0.5625q-1.53125 0 -2.1875 0.5q-0.65625 0.5 -0.65625 1.1875q0 0.4375 0.28125 0.78125q0.265625 0.359375 0.84375 0.59375q0.34375 0.125 1.96875 0.5625q2.359375 0.640625 3.296875 1.046875q0.9375 0.390625 1.46875 1.15625q0.5312576 0.765625 0.5312576 1.90625q0 1.109375 -0.6562576 2.09375q-0.640625 0.984375 -1.875 1.53125q-1.21875 0.53125 -2.765625 0.53125q-2.5625 0 -3.90625 -1.0625q-1.328125 -1.0625 -1.703125 -3.15625zm12.72657 -2.640625q0 -3.65625 2.03125 -5.40625q1.6875 -1.46875 4.125 -1.46875q2.703125 0 4.421875 1.78125q1.71875 1.78125 1.71875 4.90625q0 2.53125 -0.765625 3.984375q-0.75 1.453125 -2.203125 2.265625q-1.453125 0.796875 -3.171875 0.796875q-2.765625 0 -4.46875 -1.765625q-1.6875 -1.765625 -1.6875 -5.09375zm2.28125 0q0 2.515625 1.09375 3.78125q1.109375 1.25 2.78125 1.25q1.65625 0 2.75 -1.265625q1.109375 -1.265625 1.109375 -3.84375q0 -2.4375 -1.109375 -3.6875q-1.109375 -1.265625 -2.75 -1.265625q-1.671875 0 -2.78125 1.25q-1.09375 1.25 -1.09375 3.78125zm12.633179 6.5625l0 -13.140625l2.0 0l0 1.875q1.453125 -2.171875 4.1875 -2.171875q1.1875 0 2.171875 0.4375q1.0 0.421875 1.484375 1.125q0.5 0.6875 0.703125 1.640625q0.125 0.609375 0.125 2.15625l0 8.078125l-2.234375 0l0 -7.984375q0 -1.359375 -0.265625 -2.03125q-0.25 -0.6875 -0.90625 -1.078125q-0.65625 -0.40625 -1.546875 -0.40625q-1.421875 0 -2.46875 0.90625q-1.03125 0.890625 -1.03125 3.421875l0 7.171875l-2.21875 0zm22.648804 -1.625q-1.234375 1.0625 -2.375 1.5q-1.140625 0.421875 -2.453125 0.421875q-2.171875 0 -3.328125 -1.046875q-1.15625 -1.0625 -1.15625 -2.71875q0 -0.953125 0.4375 -1.75q0.4375 -0.796875 1.140625 -1.28125q0.71875 -0.484375 1.609375 -0.734375q0.65625 -0.171875 1.96875 -0.328125q2.703125 -0.328125 3.96875 -0.765625q0.015625 -0.46875 0.015625 -0.59375q0 -1.359375 -0.625 -1.90625q-0.859375 -0.765625 -2.53125 -0.765625q-1.578125 0 -2.328125 0.5625q-0.75 0.546875 -1.109375 1.9375l-2.171875 -0.296875q0.296875 -1.390625 0.96875 -2.25q0.6875 -0.859375 1.96875 -1.328125q1.296875 -0.46875 2.984375 -0.46875q1.6875 0 2.734375 0.40625q1.046875 0.390625 1.546875 1.0q0.5 0.59375 0.6875 1.5q0.125 0.578125 0.125 2.0625l0 2.96875q0 3.09375 0.140625 3.921875q0.140625 0.828125 0.5625 1.578125l-2.328125 0q-0.34375 -0.6875 -0.453125 -1.625zm-0.1875 -4.96875q-1.203125 0.5 -3.625 0.84375q-1.375 0.203125 -1.953125 0.453125q-0.5625 0.234375 -0.875 0.71875q-0.296875 0.46875 -0.296875 1.046875q0 0.890625 0.671875 1.484375q0.671875 0.59375 1.96875 0.59375q1.28125 0 2.28125 -0.5625q1.0 -0.5625 1.484375 -1.53125q0.34375 -0.75 0.34375 -2.234375l0 -0.8125zm5.6644287 6.59375l0 -18.125l2.21875 0l0 18.125l-2.21875 0zm12.710953 0l0 -13.140625l1.984375 0l0 1.84375q0.625 -0.953125 1.640625 -1.546875q1.03125 -0.59375 2.34375 -0.59375q1.46875 0 2.390625 0.609375q0.9375 0.609375 1.328125 1.703125q1.546875 -2.3125 4.046875 -2.3125q1.953125 0 3.0 1.09375q1.0625 1.078125 1.0625 3.328125l0 9.015625l-2.21875 0l0 -8.28125q0 -1.328125 -0.21875 -1.90625q-0.21875 -0.59375 -0.78125 -0.953125q-0.5625 -0.359375 -1.328125 -0.359375q-1.390625 0 -2.3125 0.921875q-0.90625 0.921875 -0.90625 2.953125l0 7.625l-2.234375 0l0 -8.53125q0 -1.484375 -0.546875 -2.21875q-0.53125 -0.75 -1.78125 -0.75q-0.9375 0 -1.734375 0.5q-0.796875 0.484375 -1.15625 1.4375q-0.359375 0.953125 -0.359375 2.75l0 6.8125l-2.21875 0zm30.082901 -4.234375l2.296875 0.296875q-0.53125 2.015625 -2.015625 3.125q-1.46875 1.109375 -3.75 1.109375q-2.890625 0 -4.578125 -1.765625q-1.6875 -1.78125 -1.6875 -4.984375q0 -3.3125 1.703125 -5.140625q1.71875 -1.84375 4.4375 -1.84375q2.640625 0 4.296875 1.796875q1.671875 1.796875 1.671875 5.046875q0 0.203125 -0.015625 0.59375l-9.78125 0q0.109375 2.171875 1.203125 3.328125q1.109375 1.140625 2.765625 1.140625q1.21875 0 2.078125 -0.640625q0.875 -0.640625 1.375 -2.0625zm-7.3125 -3.59375l7.34375 0q-0.15625 -1.65625 -0.84375 -2.484375q-1.0625 -1.28125 -2.75 -1.28125q-1.546875 0 -2.59375 1.03125q-1.03125 1.015625 -1.15625 2.734375zm12.414429 7.828125l0 -13.140625l2.0 0l0 1.875q1.453125 -2.171875 4.1875 -2.171875q1.1875 0 2.171875 0.4375q1.0 0.421875 1.484375 1.125q0.5 0.6875 0.703125 1.640625q0.125 0.609375 0.125 2.15625l0 8.078125l-2.234375 0l0 -7.984375q0 -1.359375 -0.265625 -2.03125q-0.25 -0.6875 -0.90625 -1.078125q-0.65625 -0.40625 -1.546875 -0.40625q-1.421875 0 -2.46875 0.90625q-1.03125 0.890625 -1.03125 3.421875l0 7.171875l-2.21875 0zm22.695679 0l0 -1.921875q-1.53125 2.21875 -4.171875 2.21875q-1.15625 0 -2.171875 -0.4375q-1.0 -0.453125 -1.5 -1.125q-0.484375 -0.671875 -0.6875 -1.65625q-0.125 -0.65625 -0.125 -2.078125l0 -8.140625l2.21875 0l0 7.296875q0 1.734375 0.140625 2.34375q0.203125 0.875 0.875 1.375q0.6875 0.5 1.6875 0.5q1.015625 0 1.890625 -0.5q0.875 -0.515625 1.234375 -1.40625q0.375 -0.890625 0.375 -2.5625l0 -7.046875l2.21875 0l0 13.140625l-1.984375 0zm6.0550537 0l0 -2.53125l2.53125 0l0 2.53125q0 1.390625 -0.5 2.25q-0.484375 0.859375 -1.5625 1.34375l-0.609375 -0.953125q0.703125 -0.3125 1.03125 -0.921875q0.328125 -0.59375 0.375 -1.71875l-1.265625 0zm15.917679 0l-4.015625 -13.140625l2.296875 0l2.09375 7.59375l0.78125 2.8125q0.046875 -0.203125 0.671875 -2.703125l2.09375 -7.703125l2.28125 0l1.96875 7.625l0.65625 2.515625l0.75 -2.546875l2.25 -7.59375l2.171875 0l-4.109375 13.140625l-2.3125 0l-2.09375 -7.859375l-0.5 -2.25l-2.65625 10.109375l-2.328125 0zm15.884918 -15.578125l0 -2.546875l2.21875 0l0 2.546875l-2.21875 0zm0 15.578125l0 -13.140625l2.21875 0l0 13.140625l-2.21875 0zm10.470856 -1.984375l0.3125 1.953125q-0.9375 0.203125 -1.671875 0.203125q-1.21875 0 -1.890625 -0.375q-0.65625 -0.390625 -0.9375 -1.015625q-0.265625 -0.625 -0.265625 -2.625l0 -7.5625l-1.640625 0l0 -1.734375l1.640625 0l0 -3.25l2.21875 -1.328125l0 4.578125l2.234375 0l0 1.734375l-2.234375 0l0 7.6875q0 0.953125 0.109375 1.234375q0.125 0.265625 0.390625 0.421875q0.265625 0.15625 0.75 0.15625q0.375 0 0.984375 -0.078125zm2.1776123 1.984375l0 -18.125l2.21875 0l0 6.5q1.5625 -1.8125 3.9375 -1.8125q1.453125 0 2.53125 0.578125q1.078125 0.578125 1.546875 1.59375q0.46875 1.015625 0.46875 2.9375l0 8.328125l-2.234375 0l0 -8.328125q0 -1.671875 -0.734375 -2.421875q-0.71875 -0.765625 -2.03125 -0.765625q-1.0 0 -1.875 0.515625q-0.859375 0.515625 -1.234375 1.390625q-0.375 0.875 -0.375 2.421875l0 7.1875l-2.21875 0z" fill-rule="nonzero"/><path fill="#005596" d="m76.442665 95.398125l2.203125 -0.34375q0.1875 1.328125 1.03125 2.03125q0.84375 0.703125 2.359375 0.703125q1.546875 0 2.28125 -0.625q0.75 -0.625 0.75 -1.46875q0 -0.75 -0.65625 -1.1875q-0.46875 -0.296875 -2.28125 -0.75q-2.453125 -0.625 -3.40625 -1.078125q-0.9375 -0.453125 -1.421875 -1.25q-0.484375 -0.796875 -0.484375 -1.75q0 -0.890625 0.390625 -1.625q0.40625 -0.75 1.09375 -1.25q0.53125 -0.390625 1.421875 -0.65625q0.890625 -0.265625 1.921875 -0.265625q1.546875 0 2.71875 0.453125q1.171875 0.4375 1.71875 1.203125q0.5625 0.765625 0.765625 2.03125l-2.171875 0.296875q-0.140625 -1.015625 -0.859375 -1.578125q-0.71875 -0.5625 -2.015625 -0.5625q-1.53125 0 -2.1875 0.5q-0.65625 0.5 -0.65625 1.1875q0 0.4375 0.28125 0.78125q0.265625 0.359375 0.84375 0.59375q0.34375 0.125 1.96875 0.5625q2.359375 0.640625 3.296875 1.046875q0.9375 0.390625 1.46875 1.15625q0.53125 0.765625 0.53125 1.90625q0 1.109375 -0.65625 2.09375q-0.640625 0.984375 -1.875 1.53125q-1.21875 0.53125 -2.765625 0.53125q-2.5625 0 -3.90625 -1.0625q-1.328125 -1.0625 -1.703125 -3.15625zm13.5546875 8.953125l0 -18.171875l2.03125 0l0 1.71875q0.71875 -1.0 1.609375 -1.5q0.90625 -0.515625 2.1875 -0.515625q1.6875 0 2.96875 0.875q1.296875 0.859375 1.953125 2.4375q0.65625 1.578125 0.65625 3.453125q0 2.015625 -0.734375 3.640625q-0.71875 1.609375 -2.09375 2.46875q-1.375 0.859375 -2.90625 0.859375q-1.109375 0 -2.0 -0.46875q-0.875 -0.46875 -1.453125 -1.1875l0 6.390625l-2.21875 0zm2.015625 -11.53125q0 2.546875 1.015625 3.765625q1.03125 1.203125 2.5 1.203125q1.484375 0 2.53125 -1.25q1.0625 -1.265625 1.0625 -3.890625q0 -2.515625 -1.03125 -3.765625q-1.03125 -1.25 -2.46875 -1.25q-1.421875 0 -2.515625 1.328125q-1.09375 1.328125 -1.09375 3.859375zm21.055054 2.265625l2.296875 0.296875q-0.53125 2.015625 -2.015625 3.125q-1.46875 1.109375 -3.75 1.109375q-2.890625 0 -4.578125 -1.765625q-1.6875 -1.78125 -1.6875 -4.984375q0 -3.3125 1.703125 -5.140625q1.71875 -1.84375 4.4375 -1.84375q2.640625 0 4.296875 1.796875q1.671875 1.796875 1.671875 5.046875q0 0.203125 -0.015625 0.59375l-9.78125 0q0.109375 2.171875 1.203125 3.328125q1.109375 1.140625 2.765625 1.140625q1.21875 0 2.078125 -0.640625q0.875 -0.640625 1.375 -2.0625zm-7.3125 -3.59375l7.34375 0q-0.15625 -1.65625 -0.84375 -2.484375q-1.0625 -1.28125 -2.75 -1.28125q-1.546875 0 -2.59375 1.03125q-1.03125 1.015625 -1.15625 2.734375zm20.976929 3.015625l2.1875076 0.28125q-0.34375 2.265625 -1.8281326 3.546875q-1.484375 1.28125 -3.625 1.28125q-2.703125 0 -4.34375 -1.765625q-1.640625 -1.765625 -1.640625 -5.046875q0 -2.125 0.703125 -3.71875q0.71875 -1.59375 2.15625 -2.390625q1.4375 -0.8125 3.125 -0.8125q2.140625 0 3.5 1.09375q1.3593826 1.078125 1.7500076 3.0625l-2.1718826 0.34375q-0.296875 -1.328125 -1.09375 -1.984375q-0.78125 -0.671875 -1.890625 -0.671875q-1.6875 0 -2.734375 1.203125q-1.046875 1.203125 -1.046875 3.8125q0 2.640625 1.015625 3.84375q1.015625 1.203125 2.640625 1.203125q1.3125 0 2.1875 -0.796875q0.875 -0.8125 1.109375 -2.484375zm4.117195 -10.765625l0 -2.546875l2.21875 0l0 2.546875l-2.21875 0zm0 15.578125l0 -13.140625l2.21875 0l0 13.140625l-2.21875 0zm14.173981 -1.625q-1.234375 1.0625 -2.375 1.5q-1.140625 0.421875 -2.453125 0.421875q-2.171875 0 -3.328125 -1.046875q-1.15625 -1.0625 -1.15625 -2.71875q0 -0.953125 0.4375 -1.75q0.4375 -0.796875 1.140625 -1.28125q0.71875 -0.484375 1.609375 -0.734375q0.65625 -0.171875 1.96875 -0.328125q2.703125 -0.328125 3.96875 -0.765625q0.015625 -0.46875 0.015625 -0.59375q0 -1.359375 -0.625 -1.90625q-0.859375 -0.765625 -2.53125 -0.765625q-1.578125 0 -2.328125 0.5625q-0.75 0.546875 -1.109375 1.9375l-2.171875 -0.296875q0.296875 -1.390625 0.96875 -2.25q0.6875 -0.859375 1.96875 -1.328125q1.296875 -0.46875 2.984375 -0.46875q1.6875 0 2.734375 0.40625q1.046875 0.390625 1.546875 1.0q0.5 0.59375 0.6875 1.5q0.125 0.578125 0.125 2.0625l0 2.96875q0 3.09375 0.140625 3.921875q0.140625 0.828125 0.5625 1.578125l-2.328125 0q-0.34375 -0.6875 -0.453125 -1.625zm-0.1875 -4.96875q-1.203125 0.5 -3.625 0.84375q-1.375 0.203125 -1.953125 0.453125q-0.5625 0.234375 -0.875 0.71875q-0.296875 0.46875 -0.296875 1.046875q0 0.890625 0.671875 1.484375q0.671875 0.59375 1.96875 0.59375q1.28125 0 2.28125 -0.5625q1.0 -0.5625 1.484375 -1.53125q0.34375 -0.75 0.34375 -2.234375l0 -0.8125zm5.6644287 6.59375l0 -18.125l2.21875 0l0 18.125l-2.21875 0zm11.882828 -6.5625q0 -3.65625 2.03125 -5.40625q1.6875 -1.46875 4.125 -1.46875q2.703125 0 4.421875 1.78125q1.71875 1.78125 1.71875 4.90625q0 2.53125 -0.765625 3.984375q-0.75 1.453125 -2.203125 2.265625q-1.453125 0.796875 -3.171875 0.796875q-2.765625 0 -4.46875 -1.765625q-1.6875 -1.765625 -1.6875 -5.09375zm2.28125 0q0 2.515625 1.09375 3.78125q1.109375 1.25 2.78125 1.25q1.65625 0 2.75 -1.265625q1.109375 -1.265625 1.109375 -3.84375q0 -2.4375 -1.109375 -3.6875q-1.109375 -1.265625 -2.75 -1.265625q-1.671875 0 -2.78125 1.25q-1.09375 1.25 -1.09375 3.78125zm12.633179 11.59375l0 -18.171875l2.03125 0l0 1.71875q0.71875 -1.0 1.609375 -1.5q0.90625 -0.515625 2.1875 -0.515625q1.6875 0 2.96875 0.875q1.296875 0.859375 1.953125 2.4375q0.65625 1.578125 0.65625 3.453125q0 2.015625 -0.734375 3.640625q-0.71875 1.609375 -2.09375 2.46875q-1.375 0.859375 -2.90625 0.859375q-1.109375 0 -2.0 -0.46875q-0.875 -0.46875 -1.453125 -1.1875l0 6.390625l-2.21875 0zm2.015625 -11.53125q0 2.546875 1.015625 3.765625q1.03125 1.203125 2.5 1.203125q1.484375 0 2.53125 -1.25q1.0625 -1.265625 1.0625 -3.890625q0 -2.515625 -1.03125 -3.765625q-1.03125 -1.25 -2.46875 -1.25q-1.421875 0 -2.515625 1.328125q-1.09375 1.328125 -1.09375 3.859375zm16.930054 4.515625l0.3125 1.953125q-0.9375 0.203125 -1.671875 0.203125q-1.21875 0 -1.890625 -0.375q-0.65625 -0.390625 -0.9375 -1.015625q-0.265625 -0.625 -0.265625 -2.625l0 -7.5625l-1.640625 0l0 -1.734375l1.640625 0l0 -3.25l2.21875 -1.328125l0 4.578125l2.234375 0l0 1.734375l-2.234375 0l0 7.6875q0 0.953125 0.109375 1.234375q0.125 0.265625 0.390625 0.421875q0.265625 0.15625 0.75 0.15625q0.375 0 0.984375 -0.078125zm2.193222 -13.59375l0 -2.546875l2.21875 0l0 2.546875l-2.21875 0zm0 15.578125l0 -13.140625l2.21875 0l0 13.140625l-2.21875 0zm4.7833557 -6.5625q0 -3.65625 2.03125 -5.40625q1.6875 -1.46875 4.125 -1.46875q2.703125 0 4.421875 1.78125q1.71875 1.78125 1.71875 4.90625q0 2.53125 -0.765625 3.984375q-0.75 1.453125 -2.203125 2.265625q-1.453125 0.796875 -3.171875 0.796875q-2.765625 0 -4.46875 -1.765625q-1.6875 -1.765625 -1.6875 -5.09375zm2.28125 0q0 2.515625 1.09375 3.78125q1.109375 1.25 2.78125 1.25q1.65625 0 2.75 -1.265625q1.109375 -1.265625 1.109375 -3.84375q0 -2.4375 -1.109375 -3.6875q-1.109375 -1.265625 -2.75 -1.265625q-1.671875 0 -2.78125 1.25q-1.09375 1.25 -1.09375 3.78125zm12.633179 6.5625l0 -13.140625l2.0 0l0 1.875q1.453125 -2.171875 4.1875 -2.171875q1.1875 0 2.171875 0.4375q1.0 0.421875 1.484375 1.125q0.5 0.6875 0.703125 1.640625q0.125 0.609375 0.125 2.15625l0 8.078125l-2.234375 0l0 -7.984375q0 -1.359375 -0.265625 -2.03125q-0.25 -0.6875 -0.90625 -1.078125q-0.65625 -0.40625 -1.546875 -0.40625q-1.421875 0 -2.46875 0.90625q-1.03125 0.890625 -1.03125 3.421875l0 7.171875l-2.21875 0zm13.195679 -3.921875l2.203125 -0.34375q0.1875 1.328125 1.03125 2.03125q0.84375 0.703125 2.359375 0.703125q1.546875 0 2.28125 -0.625q0.75 -0.625 0.75 -1.46875q0 -0.75 -0.65625 -1.1875q-0.46875 -0.296875 -2.28125 -0.75q-2.453125 -0.625 -3.40625 -1.078125q-0.9375 -0.453125 -1.421875 -1.25q-0.484375 -0.796875 -0.484375 -1.75q0 -0.890625 0.390625 -1.625q0.40625 -0.75 1.09375 -1.25q0.53125 -0.390625 1.421875 -0.65625q0.890625 -0.265625 1.921875 -0.265625q1.546875 0 2.71875 0.453125q1.171875 0.4375 1.71875 1.203125q0.5625 0.765625 0.765625 2.03125l-2.171875 0.296875q-0.140625 -1.015625 -0.859375 -1.578125q-0.71875 -0.5625 -2.015625 -0.5625q-1.53125 0 -2.1875 0.5q-0.65625 0.5 -0.65625 1.1875q0 0.4375 0.28125 0.78125q0.265625 0.359375 0.84375 0.59375q0.34375 0.125 1.96875 0.5625q2.359375 0.640625 3.296875 1.046875q0.9375 0.390625 1.46875 1.15625q0.53125 0.765625 0.53125 1.90625q0 1.109375 -0.65625 2.09375q-0.640625 0.984375 -1.875 1.53125q-1.21875 0.53125 -2.765625 0.53125q-2.5625 0 -3.90625 -1.0625q-1.328125 -1.0625 -1.703125 -3.15625zm21.12291 3.921875l0 -11.40625l-1.96875 0l0 -1.734375l1.96875 0l0 -1.390625q0 -1.328125 0.234375 -1.96875q0.328125 -0.859375 1.125 -1.390625q0.8125 -0.546875 2.28125 -0.546875q0.9375 0 2.078125 0.21875l-0.34375 1.9375q-0.6875 -0.125 -1.3125 -0.125q-1.015625 0 -1.4375 0.4375q-0.40625 0.4375 -0.40625 1.625l0 1.203125l2.546875 0l0 1.734375l-2.546875 0l0 11.40625l-2.21875 0zm5.677582 -6.5625q0 -3.65625 2.03125 -5.40625q1.6875 -1.46875 4.125 -1.46875q2.703125 0 4.421875 1.78125q1.71875 1.78125 1.71875 4.90625q0 2.53125 -0.765625 3.984375q-0.75 1.453125 -2.203125 2.265625q-1.453125 0.796875 -3.171875 0.796875q-2.765625 0 -4.46875 -1.765625q-1.6875 -1.765625 -1.6875 -5.09375zm2.28125 0q0 2.515625 1.09375 3.78125q1.109375 1.25 2.78125 1.25q1.65625 0 2.75 -1.265625q1.109375 -1.265625 1.109375 -3.84375q0 -2.4375 -1.109375 -3.6875q-1.109375 -1.265625 -2.75 -1.265625q-1.671875 0 -2.78125 1.25q-1.09375 1.25 -1.09375 3.78125zm12.601929 6.5625l0 -13.140625l2.0 0l0 2.0q0.78125 -1.40625 1.421875 -1.84375q0.65625 -0.453125 1.4375 -0.453125q1.125 0 2.28125 0.71875l-0.765625 2.078125q-0.8125 -0.484375 -1.640625 -0.484375q-0.71875 0 -1.3125 0.4375q-0.578125 0.4375 -0.828125 1.21875q-0.359375 1.1875 -0.359375 2.59375l0 6.875l-2.234375 0z" fill-rule="nonzero"/><path fill="#005596" d="m82.192665 127.335625l0.3125 1.9531174q-0.9375 0.203125 -1.671875 0.203125q-1.21875 0 -1.890625 -0.375q-0.65625 -0.390625 -0.9375 -1.015625q-0.265625 -0.6249924 -0.265625 -2.6249924l0 -7.5625l-1.640625 0l0 -1.734375l1.640625 0l0 -3.25l2.21875 -1.328125l0 4.578125l2.234375 0l0 1.734375l-2.234375 0l0 7.6875q0 0.953125 0.109375 1.234375q0.125 0.265625 0.390625 0.421875q0.265625 0.15625 0.75 0.15625q0.375 0 0.984375 -0.078125zm2.177597 1.9843674l0 -18.124992l2.21875 0l0 6.5q1.5625 -1.8125 3.9375 -1.8125q1.453125 0 2.53125 0.578125q1.078125 0.578125 1.546875 1.59375q0.46875 1.015625 0.46875 2.9375l0 8.328117l-2.234375 0l0 -8.328117q0 -1.671875 -0.734375 -2.421875q-0.71875 -0.765625 -2.03125 -0.765625q-1.0 0 -1.875 0.515625q-0.859375 0.515625 -1.234375 1.390625q-0.375 0.875 -0.375 2.421875l0 7.1874924l-2.21875 0zm14.101929 -15.578117l0 -2.546875l2.21875 0l0 2.546875l-2.21875 0zm0 15.578117l0 -13.140617l2.21875 0l0 13.140617l-2.21875 0zm4.7208557 -3.9218674l2.203125 -0.34375q0.1875 1.328125 1.03125 2.03125q0.84375 0.703125 2.359375 0.703125q1.546875 0 2.28125 -0.625q0.75 -0.625 0.75 -1.46875q0 -0.75 -0.65625 -1.1875q-0.46875 -0.296875 -2.28125 -0.75q-2.453125 -0.625 -3.40625 -1.078125q-0.9375 -0.453125 -1.421875 -1.25q-0.484375 -0.796875 -0.484375 -1.75q0 -0.890625 0.390625 -1.625q0.40625 -0.75 1.09375 -1.25q0.53125 -0.390625 1.421875 -0.65625q0.890625 -0.265625 1.921875 -0.265625q1.546875 0 2.71875 0.453125q1.171875 0.4375 1.71875 1.203125q0.5625 0.765625 0.765625 2.03125l-2.171875 0.296875q-0.140625 -1.015625 -0.859375 -1.578125q-0.71875 -0.5625 -2.015625 -0.5625q-1.53125 0 -2.1875 0.5q-0.65625 0.5 -0.65625 1.1875q0 0.4375 0.28125 0.78125q0.265625 0.359375 0.84375 0.59375q0.34375 0.125 1.96875 0.5625q2.359375 0.640625 3.296875 1.046875q0.9375 0.390625 1.46875 1.15625q0.53125 0.765625 0.53125 1.90625q0 1.109375 -0.65625 2.09375q-0.640625 0.9843674 -1.875 1.5312424q-1.21875 0.53125 -2.765625 0.53125q-2.5625 0 -3.90625 -1.0625q-1.328125 -1.0624924 -1.703125 -3.1562424zm19.701035 0l2.203125 -0.34375q0.1875 1.328125 1.03125 2.03125q0.84375 0.703125 2.3593826 0.703125q1.546875 0 2.28125 -0.625q0.75 -0.625 0.75 -1.46875q0 -0.75 -0.65625 -1.1875q-0.46875 -0.296875 -2.28125 -0.75q-2.4531326 -0.625 -3.4062576 -1.078125q-0.9375 -0.453125 -1.421875 -1.25q-0.484375 -0.796875 -0.484375 -1.75q0 -0.890625 0.390625 -1.625q0.40625 -0.75 1.09375 -1.25q0.53125 -0.390625 1.421875 -0.65625q0.890625 -0.265625 1.9218826 -0.265625q1.546875 0 2.71875 0.453125q1.171875 0.4375 1.71875 1.203125q0.5625 0.765625 0.765625 2.03125l-2.171875 0.296875q-0.140625 -1.015625 -0.859375 -1.578125q-0.71875 -0.5625 -2.015625 -0.5625q-1.5312576 0 -2.1875076 0.5q-0.65625 0.5 -0.65625 1.1875q0 0.4375 0.28125 0.78125q0.265625 0.359375 0.84375 0.59375q0.34375 0.125 1.9687576 0.5625q2.359375 0.640625 3.296875 1.046875q0.9375 0.390625 1.46875 1.15625q0.53125 0.765625 0.53125 1.90625q0 1.109375 -0.65625 2.09375q-0.640625 0.9843674 -1.875 1.5312424q-1.21875 0.53125 -2.765625 0.53125q-2.5625076 0 -3.9062576 -1.0625q-1.328125 -1.0624924 -1.703125 -3.1562424zm22.53907 -0.3125l2.296875 0.296875q-0.53125 2.015625 -2.015625 3.1249924q-1.46875 1.109375 -3.75 1.109375q-2.890625 0 -4.578125 -1.7656174q-1.6875 -1.78125 -1.6875 -4.984375q0 -3.3125 1.703125 -5.140625q1.71875 -1.84375 4.4375 -1.84375q2.640625 0 4.296875 1.796875q1.671875 1.796875 1.671875 5.046875q0 0.203125 -0.015625 0.59375l-9.78125 0q0.109375 2.171875 1.203125 3.328125q1.109375 1.140625 2.765625 1.140625q1.21875 0 2.078125 -0.640625q0.875 -0.640625 1.375 -2.0625zm-7.3125 -3.59375l7.34375 0q-0.15625 -1.65625 -0.84375 -2.484375q-1.0625 -1.28125 -2.75 -1.28125q-1.546875 0 -2.59375 1.03125q-1.03125 1.015625 -1.15625 2.734375zm20.976929 6.203125q-1.234375 1.0624924 -2.375 1.4999924q-1.140625 0.421875 -2.453125 0.421875q-2.171875 0 -3.328125 -1.046875q-1.15625 -1.0624924 -1.15625 -2.7187424q0 -0.953125 0.4375 -1.75q0.4375 -0.796875 1.140625 -1.28125q0.71875 -0.484375 1.609375 -0.734375q0.65625 -0.171875 1.96875 -0.328125q2.703125 -0.328125 3.96875 -0.765625q0.015625 -0.46875 0.015625 -0.59375q0 -1.359375 -0.625 -1.90625q-0.859375 -0.765625 -2.53125 -0.765625q-1.578125 0 -2.328125 0.5625q-0.75 0.546875 -1.109375 1.9375l-2.171875 -0.296875q0.296875 -1.390625 0.96875 -2.25q0.6875 -0.859375 1.96875 -1.328125q1.296875 -0.46875 2.984375 -0.46875q1.6875 0 2.734375 0.40625q1.046875 0.390625 1.546875 1.0q0.5 0.59375 0.6875 1.5q0.125 0.578125 0.125 2.0625l0 2.96875q0 3.09375 0.140625 3.921875q0.140625 0.8281174 0.5625 1.5781174l-2.328125 0q-0.34375 -0.6875 -0.453125 -1.6249924zm-0.1875 -4.96875q-1.203125 0.5 -3.625 0.84375q-1.375 0.203125 -1.953125 0.453125q-0.5625 0.234375 -0.875 0.71875q-0.296875 0.46875 -0.296875 1.046875q0 0.890625 0.671875 1.484375q0.671875 0.59375 1.96875 0.59375q1.28125 0 2.28125 -0.5625q1.0 -0.5625 1.484375 -1.53125q0.34375 -0.75 0.34375 -2.234375l0 -0.8125zm4.8206787 2.671875l2.203125 -0.34375q0.1875 1.328125 1.03125 2.03125q0.84375 0.703125 2.359375 0.703125q1.546875 0 2.28125 -0.625q0.75 -0.625 0.75 -1.46875q0 -0.75 -0.65625 -1.1875q-0.46875 -0.296875 -2.28125 -0.75q-2.453125 -0.625 -3.40625 -1.078125q-0.9375 -0.453125 -1.421875 -1.25q-0.484375 -0.796875 -0.484375 -1.75q0 -0.890625 0.390625 -1.625q0.40625 -0.75 1.09375 -1.25q0.53125 -0.390625 1.421875 -0.65625q0.890625 -0.265625 1.921875 -0.265625q1.546875 0 2.71875 0.453125q1.171875 0.4375 1.71875 1.203125q0.5625 0.765625 0.765625 2.03125l-2.171875 0.296875q-0.140625 -1.015625 -0.859375 -1.578125q-0.71875 -0.5625 -2.015625 -0.5625q-1.53125 0 -2.1875 0.5q-0.65625 0.5 -0.65625 1.1875q0 0.4375 0.28125 0.78125q0.265625 0.359375 0.84375 0.59375q0.34375 0.125 1.96875 0.5625q2.359375 0.640625 3.296875 1.046875q0.9375 0.390625 1.46875 1.15625q0.53125 0.765625 0.53125 1.90625q0 1.109375 -0.65625 2.09375q-0.640625 0.9843674 -1.875 1.5312424q-1.21875 0.53125 -2.765625 0.53125q-2.5625 0 -3.90625 -1.0625q-1.328125 -1.0624924 -1.703125 -3.1562424zm12.7265625 -2.640625q0 -3.65625 2.03125 -5.40625q1.6875 -1.46875 4.125 -1.46875q2.703125 0 4.421875 1.78125q1.71875 1.78125 1.71875 4.90625q0 2.53125 -0.765625 3.984375q-0.75 1.4531174 -2.203125 2.2656174q-1.453125 0.796875 -3.171875 0.796875q-2.765625 0 -4.46875 -1.7656174q-1.6875 -1.765625 -1.6875 -5.09375zm2.28125 0q0 2.515625 1.09375 3.78125q1.109375 1.25 2.78125 1.25q1.65625 0 2.75 -1.265625q1.109375 -1.265625 1.109375 -3.84375q0 -2.4375 -1.109375 -3.6875q-1.109375 -1.265625 -2.75 -1.265625q-1.671875 0 -2.78125 1.25q-1.09375 1.25 -1.09375 3.78125zm12.633179 6.5624924l0 -13.140617l2.0 0l0 1.875q1.453125 -2.171875 4.1875 -2.171875q1.1875 0 2.171875 0.4375q1.0 0.421875 1.484375 1.125q0.5 0.6875 0.703125 1.640625q0.125 0.609375 0.125 2.15625l0 8.078117l-2.234375 0l0 -7.9843674q0 -1.359375 -0.265625 -2.03125q-0.25 -0.6875 -0.90625 -1.078125q-0.65625 -0.40625 -1.546875 -0.40625q-1.421875 0 -2.46875 0.90625q-1.03125 0.890625 -1.03125 3.421875l0 7.1718674l-2.21875 0zm14.711304 0l0 -2.5312424l2.53125 0l0 2.5312424l-2.53125 0z" fill-rule="nonzero"/></g></svg>